# xmcd CD database file
#
# Track frame offsets:
#	150
#	10530
#	21261
#	34592
#	49996
#	66567
#	76887
#
# Disc length: 1246 seconds
#
# Revision: 0
# Processed by: cddbd v1.5.2PL0 Copyright (c) Steve Scherf et al.
# Submitted via: CDex 1.51
#
DISCID=5004dc07
DTITLE=Mr. Pink Rabbit And His Turkey Banjo Twins - The King On A G-String
DYEAR=2002
DGENRE=Jazz
TTITLE0=Viva Los Banjos
TTITLE1=Banjo In Disguise
TTITLE2=(Gläng) In The Ghetto
TTITLE3=Such A Gläng
TTITLE4=Suspicious Strings
TTITLE5=En Lite Less Komparkille
TTITLE6=Blue Banjo X-Mas
EXTD=YEAR: 2002
EXTT0=
EXTT1=
EXTT2=
EXTT3=
EXTT4=
EXTT5=
EXTT6=
PLAYORDER=
